<?xml version="1.0" ?><!DOCTYPE svg  PUBLIC '-//W3C//DTD SVG 1.1//EN'  'http://www.w3.org/Graphics/SVG/1.1/DTD/svg11.dtd'><svg enable-background="new 0 0 141.732 141.732" height="141.732px" id="Livello_1" version="1.1" viewBox="0 0 141.732 141.732" width="141.732px" xml:space="preserve" xmlns="http://www.w3.org/2000/svg" xmlns:xlink="http://www.w3.org/1999/xlink"><g id="Livello_31"><path d="M22.565,11.556C22.565,5.174,17.514,0,11.284,0C5.052,0,0,5.174,0,11.556c0,6.382,5.053,11.556,11.283,11.556   C17.514,23.111,22.565,17.938,22.565,11.556 M22.565,50.074c0-6.383-5.051-11.556-11.28-11.556C5.052,38.519,0,43.691,0,50.074   c0,6.382,5.053,11.555,11.283,11.555C17.514,61.629,22.565,56.456,22.565,50.074 M22.565,88.471c0-6.385-5.051-11.559-11.28-11.559   C5.052,76.915,0,82.089,0,88.471c0,6.382,5.053,11.557,11.283,11.557C17.514,100.027,22.565,94.853,22.565,88.471 M22.565,127.109   c0-6.381-5.051-11.555-11.28-11.555C5.052,115.555,0,120.729,0,127.109c0,6.383,5.053,11.557,11.283,11.557   C17.514,138.666,22.565,133.492,22.565,127.109 M30.268,23.297h97.417V0.187H30.268V23.297z M30.268,61.815h97.417v-23.11H30.268   V61.815z M30.268,100.333h97.417V77.223H30.268V100.333z M127.688,115.741H30.27v23.109h97.417L127.688,115.741L127.688,115.741z"/></g><g id="Livello_1_1_"/></svg>