<?xml version="1.0" ?><!DOCTYPE svg  PUBLIC '-//W3C//DTD SVG 1.1//EN'  'http://www.w3.org/Graphics/SVG/1.1/DTD/svg11.dtd'><svg height="32px" id="Layer_1" style="enable-background:new 0 0 32 32;" version="1.1" viewBox="0 0 32 32" width="32px" xml:space="preserve" xmlns="http://www.w3.org/2000/svg" xmlns:xlink="http://www.w3.org/1999/xlink"><g transform="translate(336 144)"><path d="M-336-138v20h32v-20H-336z M-306-120h-28v-16h28V-120z M-330-121h7.626c-1.557-1.354-2.626-3.965-2.626-7   s1.069-5.646,2.626-7H-330c0,1.658-1.344,3-3,3v8C-331.344-124-330-122.658-330-121z M-328.5-129.5c0.828,0,1.5,0.672,1.5,1.5   s-0.672,1.5-1.5,1.5c-0.828,0-1.5-0.672-1.5-1.5S-329.328-129.5-328.5-129.5z M-317.627-121H-310c0-1.658,1.344-3,3-3v-8   c-1.656,0-3-1.342-3-3h-7.627c1.559,1.354,2.627,3.965,2.627,7S-316.068-122.354-317.627-121z M-311.5-129.5   c0.828,0,1.5,0.672,1.5,1.5s-0.672,1.5-1.5,1.5s-1.5-0.672-1.5-1.5S-312.328-129.5-311.5-129.5z M-322.5-129   c0,1.103,0.896,1.5,1.5,1.5h0.5v2h-1.5c-0.275,0-0.5,0.226-0.5,0.5s0.225,0.5,0.5,0.5h1.5v0.5c0,0.274,0.225,0.5,0.5,0.5   c0.275,0,0.5-0.226,0.5-0.5v-0.5h0.5c0.604,0,1.5-0.397,1.5-1.5v-1c0-1.103-0.896-1.5-1.5-1.5h-0.5v-2h1.5   c0.275,0,0.5-0.226,0.5-0.5s-0.225-0.5-0.5-0.5h-1.5v-0.5c0-0.274-0.225-0.5-0.5-0.5c-0.275,0-0.5,0.226-0.5,0.5v0.5h-0.5   c-0.604,0-1.5,0.397-1.5,1.5V-129z M-319.5-127.5h0.5c0.225,0.006,0.5,0.099,0.5,0.5v1c0,0.401-0.275,0.494-0.5,0.5h-0.5V-127.5z    M-321.5-130c0-0.401,0.275-0.494,0.5-0.5h0.5v2h-0.5c-0.225-0.006-0.5-0.099-0.5-0.5V-130z"/></g></svg>