<svg width="32" height="32" xmlns="http://www.w3.org/2000/svg">

 <g>
  <title>background</title>
  <rect fill="none" id="canvas_background" height="402" width="582" y="-1" x="-1"/>
 </g>
 <g>
  <title>Layer 1</title>
  <rect id="svg_1" width="32" height="32" fill="none"/>
  <polygon id="svg_2" points="0,30 4,22 28,22 32,30  "/>
  <path id="svg_3" d="m4,2l0,18l24,0l0,-18l-24,0zm22,16l-20,0l0,-14l20,0l0,14z"/>
  <path d="m8.472569,15.933981c0,0 0.108315,-0.045746 0.307691,-0.21978c0.305303,-0.266496 0.741942,-0.634892 1.230762,-1.450541c0.717748,-1.197639 1.269705,-2.814712 1.758232,-4.39558c0.326324,-1.055979 0.494482,-1.493472 0.505492,-1.670321c0.001366,-0.021935 -0.021978,0.065934 -0.065934,0.241757c-0.285712,1.142851 -0.487434,2.395038 -0.659337,3.626354c-0.134947,0.966603 -0.165442,1.584246 -0.131867,1.8901c0.02211,0.201417 0.096277,0.309593 0.197802,0.351646c0.143578,0.059472 0.422491,0.036612 0.703293,-0.197801c0.346179,-0.28899 0.590809,-0.989617 0.659337,-1.274718c0.021178,-0.088108 0.027892,-0.065877 0.021978,0.241756c-0.010991,0.571742 -0.065738,1.186797 -0.043956,1.648343c0.014652,0.310469 0.196019,0.605685 0.505491,0.703293c0.358779,0.113159 0.941459,0.051438 1.450541,-0.483514c0.327766,-0.344422 0.447855,-0.597127 0.483514,-0.571425c0.169145,0.121912 0.104412,0.53266 0.175823,0.83516c0.047904,0.202923 0.144596,0.365007 0.417581,0.41758c0.367517,0.070778 0.808611,-0.015196 1.186808,-0.263735c0.301237,-0.197964 0.488714,-0.328432 0.52747,-0.307691c0.069866,0.037392 0.102432,0.253426 0.175823,0.395602c0.06455,0.12505 0.258842,0.230607 0.593403,0.263735c0.262451,0.025988 0.41758,-0.065933 0.483513,-0.131867l0.021978,-0.043956" id="svg_11" fill-opacity="null" stroke-opacity="null" stroke-width="1.5" stroke="#000" fill="none"/>
  <path id="svg_12" d="m22.670295,2.043945c0,0 0.065934,0.52747 0.065934,0.52747" opacity="0.5" fill-opacity="null" stroke-opacity="null" stroke-width="null" stroke="null" fill="null"/>
 </g>
</svg>